# xmcd
#
# Track frame offsets:
#	150
#	18689
#	39160
#	56310
#	69661
#	87848
#	100239
#	117744
#	132059
#	154613
#
# Disc length: 2239 seconds
# Revision: 0
# Processed by: cddbd v1.5.2PL0 Copyright (c) Steve Scherf et al.
# Submitted via: dBpowerAMP V12.0
#
DISCID=7c08bd0a
DTITLE=Planet Sandwich - Planet Sandwich
DYEAR=1900
DGENRE=Rock
TTITLE0=Styrofoam
TTITLE1=Fuel
TTITLE2=The Rest Of Us
TTITLE3=Mr. Puzzle
TTITLE4=Page One
TTITLE5=Debasement
TTITLE6=Ozone
TTITLE7=Snowman
TTITLE8=Stuck
TTITLE9=Home
EXTD=
EXTT0=
EXTT1=
EXTT2=
EXTT3=
EXTT4=
EXTT5=
EXTT6=
EXTT7=
EXTT8=
EXTT9=
PLAYORDER=
